<?xml version="1.0" encoding="UTF-8"?>
<svg xmlns="http://www.w3.org/2000/svg" xmlns:xlink="http://www.w3.org/1999/xlink" viewBox="0 0 96 96" width="96px" height="96px">
<g id="surface8978">
<path style=" stroke:none;fill-rule:nonzero;fill:rgb(91.764706%,29.019609%,29.019609%);fill-opacity:1;" d="M 66.464844 3 C 66.339844 3.003906 66.246094 3.039062 66.183594 3.101562 L 55.035156 16.335938 L 52.761719 24.152344 C 51.21875 24.101562 49.625 24.082031 47.988281 24.082031 C 36.40625 24.082031 27 25.308594 27 26.828125 C 27 30.460938 68.96875 30.460938 68.96875 26.828125 C 68.96875 25.703125 63.945312 24.753906 56.699219 24.304688 L 58.5 17.871094 L 68.921875 5.332031 L 68.941406 5.3125 C 69.175781 5.070312 68.71875 4.34375 67.972656 3.703125 C 67.417969 3.222656 66.828125 2.984375 66.460938 3 Z M 51.910156 27.226562 L 51.867188 27.351562 C 51.847656 27.367188 51.851562 27.386719 51.851562 27.402344 C 51.851562 27.628906 52.757812 27.8125 53.867188 27.8125 C 54.972656 27.8125 55.886719 27.628906 55.886719 27.402344 L 55.921875 27.261719 C 56.210938 27.367188 56.375 27.488281 56.375 27.625 C 56.375 27.988281 55.25 28.285156 53.847656 28.269531 C 52.484375 28.269531 51.359375 27.996094 51.359375 27.632812 C 51.359375 27.476562 51.582031 27.332031 51.910156 27.226562 Z M 68.738281 28.257812 C 63.183594 31.222656 32.847656 31.242188 27.277344 28.300781 L 29.742188 50 C 30.8125 46.539062 33.523438 41.867188 37.007812 40.453125 C 38.152344 39.984375 39.3125 39.988281 40.402344 40.613281 C 41.34375 41.128906 42.144531 42.21875 42.234375 42.652344 C 42.453125 43.777344 41.871094 44.222656 41.421875 44.222656 C 40.875 44.222656 40.457031 43.429688 40.183594 42.960938 C 39.441406 41.699219 38.3125 41.644531 37.113281 42.472656 C 35.859375 43.339844 34.769531 44.792969 34.007812 46.054688 C 33.082031 47.574219 32.300781 49.253906 31.828125 50.929688 C 31.554688 51.898438 31.304688 53.449219 31.722656 54.371094 C 31.90625 54.75 32.175781 54.992188 32.613281 54.992188 C 33.523438 54.992188 34.84375 53.851562 35.480469 53.242188 C 36.292969 52.46875 37.347656 51.253906 37.746094 50.476562 L 38.695312 47.800781 C 39.167969 46.625 40.488281 46.832031 40.488281 47.800781 C 40.488281 49.566406 39.820312 50.152344 38.679688 53.800781 C 37.625 57.171875 37.296875 58.265625 37.296875 58.265625 C 37.167969 58.75 36.675781 59.558594 36.152344 59.558594 C 35.933594 59.558594 35.773438 59.488281 35.683594 59.347656 C 35.5 59.105469 35.519531 58.441406 35.539062 58.265625 C 35.574219 57.714844 36.679688 54.425781 36.863281 53.90625 C 36.5 54.289062 36.117188 54.671875 35.703125 55.046875 C 34.71875 55.929688 33.144531 57.085938 31.800781 57.085938 C 31.179688 57.085938 30.785156 56.929688 30.40625 56.671875 L 31.78125 70.433594 C 32.144531 71.300781 38.898438 73.394531 47.796875 73.394531 C 56.707031 73.394531 63.457031 71.285156 63.804688 70.433594 L 65.785156 54.082031 C 64.75 54.980469 63.550781 56.089844 62.226562 56.640625 C 61.246094 57.042969 59.070312 57.296875 59.070312 55.652344 C 59.070312 54.753906 60.722656 53.09375 61.683594 51.9375 C 61.9375 51.644531 62.53125 50.917969 62.53125 50.535156 C 62.53125 50.035156 61.445312 50.152344 60.410156 50.964844 C 59.828125 51.433594 59.28125 52.058594 58.828125 52.644531 C 58.046875 53.683594 57.632812 54.582031 57.289062 55.324219 C 56.164062 57.777344 56.542969 56.8125 55.636719 59.125 C 54.726562 61.429688 54.875 61.164062 54.691406 61.546875 C 54.53125 61.875 54.292969 62.15625 53.964844 62.324219 C 53.621094 62.5 53.148438 62.480469 52.859375 62.273438 C 52.695312 62.167969 52.617188 61.945312 52.617188 61.632812 C 52.617188 61.480469 52.640625 61.320312 52.675781 61.164062 C 52.949219 60.109375 54.09375 58.039062 55.402344 55.234375 C 55.691406 54.597656 55.578125 54.785156 55.542969 54.835938 C 54.417969 55.875 53.5625 56.378906 52.929688 56.65625 C 51.875 57.105469 50.566406 57.101562 50.296875 55.945312 C 50.277344 55.875 50.28125 55.804688 50.261719 55.734375 C 48.121094 57.324219 45.851562 57.757812 46.636719 54.335938 C 45.800781 55.753906 44.34375 56.914062 42.5625 56.914062 C 41.820312 56.914062 41.273438 56.671875 41.003906 56.035156 C 40.585938 55.082031 41.238281 53.453125 41.835938 51.914062 C 42.144531 51.136719 42.566406 50.203125 43.132812 49.113281 C 43.421875 48.523438 43.890625 48.179688 44.507812 48.335938 C 44.617188 48.371094 44.710938 48.40625 44.800781 48.457031 C 45.273438 48.769531 45.089844 49.230469 44.855469 49.699219 C 44.164062 50.996094 43.566406 51.945312 43.167969 53.296875 C 43.003906 53.867188 42.800781 54.855469 43.4375 54.855469 C 43.871094 54.855469 44.289062 54.714844 44.691406 54.441406 C 45.523438 53.851562 46.195312 52.972656 46.707031 52.109375 C 47.066406 51.488281 47.503906 50.671875 47.726562 49.980469 C 47.816406 49.6875 47.925781 49.410156 48.054688 49.148438 C 48.253906 48.714844 48.523438 48.269531 48.996094 48.269531 C 49.234375 48.269531 49.429688 48.355469 49.578125 48.527344 C 49.886719 48.910156 49.816406 49.300781 49.652344 49.71875 C 49.289062 50.6875 48.800781 51.550781 48.398438 52.605469 C 48.160156 53.210938 47.90625 53.988281 47.90625 54.628906 C 47.90625 55.214844 48.578125 55.074219 49.144531 54.832031 C 49.578125 54.644531 50.011719 54.351562 50.378906 54.058594 C 50.597656 53.210938 50.539062 53.398438 55.171875 42.265625 C 55.410156 41.695312 55.84375 41.449219 56.28125 41.449219 C 56.5 41.449219 56.675781 41.523438 56.859375 41.644531 C 57.167969 41.867188 57.171875 42.347656 57.046875 42.710938 C 56.921875 43.039062 56.933594 42.933594 56.226562 44.527344 C 55.28125 46.617188 54.667969 48.125 53.832031 50.046875 C 53.484375 50.839844 52.433594 53.3125 52.253906 53.902344 C 52.144531 54.28125 52.015625 54.902344 52.4375 54.902344 C 53.417969 54.902344 55.941406 52.636719 56.632812 51.960938 C 56.667969 51.910156 56.722656 51.890625 56.796875 51.855469 C 56.902344 51.527344 57.007812 51.21875 57.101562 50.90625 C 57.355469 50.25 57.59375 49.484375 58.066406 48.949219 C 58.210938 48.773438 58.371094 48.675781 58.554688 48.675781 C 59.058594 48.675781 59.316406 48.878906 59.316406 49.367188 C 59.316406 49.554688 59.191406 50.25 59.117188 50.4375 C 59.371094 50.179688 59.640625 49.921875 59.929688 49.664062 C 62.652344 47.261719 64.59375 48.488281 64.59375 49.699219 C 64.59375 50.976562 62.980469 52.753906 62.09375 53.742188 C 61.800781 54.070312 61.203125 54.675781 61.183594 54.851562 C 61.183594 55.074219 61.34375 55.167969 61.582031 55.167969 C 61.945312 55.167969 62.746094 54.558594 63.035156 54.351562 C 63.945312 53.675781 65.175781 52.640625 66.046875 51.914062 Z M 32.789062 72.09375 L 35.496094 76.488281 L 36.550781 90.21875 C 36.550781 91.753906 41.6875 93 48.003906 93 C 54.324219 93 59.460938 91.753906 59.460938 90.21875 L 60.296875 76.347656 L 62.851562 72.09375 C 55.664062 74.984375 40.269531 75.085938 32.789062 72.09375 Z M 32.789062 72.09375 "/>
</g>
</svg>
